<svg width="800" height="520" viewBox="0 0 800 520" fill="none" xmlns="http://www.w3.org/2000/svg">
  <rect width="800" height="520" rx="36" fill="#0B1020"/>
  <circle cx="400" cy="260" r="170" fill="#A855F7" fill-opacity="0.08"/>
  <circle cx="400" cy="260" r="110" fill="#22D3EE" fill-opacity="0.10"/>
  <rect x="210" y="170" width="380" height="180" rx="28" fill="#111827" stroke="#22D3EE" stroke-width="3"/>
  <circle cx="345" cy="260" r="48" fill="#0F172A" stroke="#38BDF8" stroke-width="4"/>
  <circle cx="455" cy="260" r="48" fill="#0F172A" stroke="#A855F7" stroke-width="4"/>
  <circle cx="400" cy="210" r="16" fill="#38BDF8"/>
  <circle cx="400" cy="310" r="16" fill="#A855F7"/>
  <circle cx="400" cy="260" r="16" fill="#22D3EE"/>
  <path d="M345 260H455" stroke="#E2E8F0" stroke-width="6" stroke-linecap="round"/>
  <path d="M400 210V310" stroke="#E2E8F0" stroke-width="6" stroke-linecap="round"/>
  <path d="M295 260H260" stroke="#38BDF8" stroke-width="8" stroke-linecap="round"/>
  <path d="M505 260H540" stroke="#A855F7" stroke-width="8" stroke-linecap="round"/>
  <path d="M400 144V170" stroke="#22D3EE" stroke-width="8" stroke-linecap="round"/>
  <path d="M400 350V376" stroke="#22D3EE" stroke-width="8" stroke-linecap="round"/>
  <path d="M360 176L348 160" stroke="#22D3EE" stroke-width="8" stroke-linecap="round"/>
  <path d="M440 176L452 160" stroke="#22D3EE" stroke-width="8" stroke-linecap="round"/>
  <path d="M360 344L348 360" stroke="#22D3EE" stroke-width="8" stroke-linecap="round"/>
  <path d="M440 344L452 360" stroke="#22D3EE" stroke-width="8" stroke-linecap="round"/>
  <text x="400" y="430" text-anchor="middle" font-family="Inter, system-ui, sans-serif" font-size="30" font-weight="700" fill="#F8FAFC">생각을 나눠 맡는 AI</text>
</svg>
